<svg width="25" height="28" viewBox="0 0 25 28" fill="none" xmlns="http://www.w3.org/2000/svg">
<path d="M1 0C0.4477 0 0 0.880603 0 1.96695V26.0331C0 27.1194 0.4477 28 1 28C1.5523 28 2 27.1194 2 26.0331V1.96695C2 0.880603 1.5523 0 1 0Z" fill="#4ABB22" fill-opacity="0.91"/>
<path d="M23.8719 1.6474C23.1954 1.30918 22.3851 1.3822 21.7798 1.83638C19.4438 3.58907 17.1836 2.87469 13.6898 1.56389C10.2657 0.279464 6.00446 -1.3189 1.79878 1.83638C1.29596 2.21365 1 2.80567 1 3.43435V15.3319C1 16.0886 1.42761 16.7804 2.10453 17.1189C2.78146 17.4573 3.59153 17.384 4.19663 16.9299C6.53266 15.1772 8.79277 15.8916 12.2866 17.2024C14.2356 17.9334 16.4557 18.7663 18.7825 18.7663C20.5436 18.7663 22.3658 18.2892 24.1776 16.9299C24.6804 16.5526 24.9764 15.9606 24.9764 15.3319V3.43435C24.9764 2.67761 24.5488 1.98581 23.8719 1.6474Z" fill="#4ABB22" fill-opacity="0.91"/>
</svg>
